<mxfile host="app.diagrams.net" modified="2024-02-06T16:50:13.719Z" agent="Mozilla/5.0 (Macintosh; Intel Mac OS X 10_15_7) AppleWebKit/537.36 (KHTML, like Gecko) Chrome/120.0.0.0 Safari/537.36" version="22.1.21" etag="O5W4LKUScn9tcg5zxe-o" type="github">
  <diagram name="Page-1" id="YhD6qplooyKG5AWLauqK">
    <mxGraphModel>
      <root>
        <mxCell id="0" />
        <mxCell id="1" parent="0" />
      </root>
    </mxGraphModel>
  </diagram>
</mxfile>
